<?xml version="1.0" encoding="UTF-8" standalone="no"?>
<!DOCTYPE svg PUBLIC "-//W3C//DTD SVG 1.1//EN" "http://www.w3.org/Graphics/SVG/1.1/DTD/svg11.dtd">
<svg width="100%" height="100%" viewBox="0 0 1182 1182" version="1.1" xmlns="http://www.w3.org/2000/svg" xmlns:xlink="http://www.w3.org/1999/xlink" xml:space="preserve" xmlns:serif="http://www.serif.com/" style="fill-rule:evenodd;clip-rule:evenodd;stroke-linejoin:round;stroke-miterlimit:2;">
    <g transform="matrix(6.49616,0,0,6.49197,-3115.4,-196.679)">
        <g transform="matrix(1,0,0,1,-2.25201,6.80673)">
            <g transform="matrix(0.41661,0,0,0.41661,318.391,40.0079)">
                <path d="M567.312,156.923C569.794,164.685 571.85,172.907 573.399,181.48C559.313,193.684 538.792,202.869 515.19,206.132C509.289,206.948 503.473,207.355 497.805,207.383L497.274,207.385C480.476,207.398 464.995,204.079 452.475,198.198C452.035,193.63 459.656,190.025 460.253,180.896C460.808,172.421 451.919,161.431 452.067,157.452L452.26,157.534C467.548,164.073 487.676,181.285 508.24,181.222L508.501,181.22C509.976,181.205 511.454,181.101 512.931,180.896C535.187,177.819 553.23,167.727 567.193,156.554L567.312,156.923Z" style="fill:rgb(255,92,0);"/>
            </g>
            <g transform="matrix(0.41661,0,0,0.41661,323.39,45.0072)">
                <path d="M410.601,217.541C428.065,213.698 452.246,216.504 471.402,204.763C492.579,191.782 512.718,171.147 517.648,153.958C519.738,155.522 520.44,157.164 520.621,158.874C520.771,160.295 520.562,161.764 520.49,163.273L520.479,163.543C520.396,165.886 520.715,168.328 523.283,170.845C518.849,188.947 507.42,208.308 490.052,224.62C472.684,240.932 452.645,251.126 434.301,254.417C433.652,253.667 433.586,252.699 433.833,251.564C434.568,248.187 438.07,243.333 437.228,238.325L437.195,238.142C436.999,237.107 436.614,236.067 435.978,235.032C431.528,227.797 412.782,220.872 410.601,217.541Z" style="fill:rgb(255,137,0);"/>
            </g>
        </g>
        <g transform="matrix(1,0,0,1,-0.231881,0.41661)">
            <g transform="matrix(0.41661,0,0,0.41661,323.638,48.8977)">
                <path d="M780.574,163.349C780.84,166.437 780.976,169.554 780.976,172.698C780.976,240.466 718.056,295.486 640.557,295.486L601.49,286.197L640.557,181.467C665.252,181.467 700.957,152.651 700.957,152.651C700.957,152.651 760.925,169.484 780.574,163.349ZM640.557,151.459L584.461,68.128L640.557,49.911C703.106,49.911 756.159,85.751 774.302,135.216C754.48,140.888 739.327,161.42 739.327,161.42C739.327,161.42 663.105,151.459 640.557,151.459Z" style="fill:rgb(42,46,51);"/>
            </g>
            <g transform="matrix(0.41661,0,0,0.41661,323.638,48.8977)">
                <path d="M501.382,163.611C522.604,170.158 548.539,169.663 577.449,172.698C597.273,174.78 618.496,181.467 640.557,181.467L640.557,295.486C563.057,295.486 500.138,240.466 500.138,172.698C500.138,169.554 500.273,166.437 500.539,163.349L501.382,163.611ZM640.557,151.459C620.799,151.459 600.712,153.561 582.701,151.877C553.729,149.167 528.541,141.434 506.811,135.216C524.954,85.751 578.007,49.911 640.557,49.911L640.557,151.459Z" style="fill:rgb(57,64,74);"/>
            </g>
            <g transform="matrix(1,0,0,1,257.568,0.738605)">
                <path d="M333.327,121.982C355.463,121.314 369.051,102 380.654,114C382.991,116.417 382.701,122.97 381.622,128.869C379.824,138.702 372.609,150.169 362.154,149C353.21,148 349.301,145.4 341.133,143.5C338.666,142.926 335.929,142.333 333.327,142.333C330.725,142.333 327.988,142.926 325.521,143.5C317.353,145.4 313.443,148 304.5,149C294.044,150.169 286.83,138.702 285.031,128.869C283.952,122.97 283.663,116.417 286,114C297.603,102 311.19,121.314 333.327,121.982Z" style="fill:rgb(255,179,150);"/>
            </g>
            <path d="M590.5,122.707C590.63,122.712 590.762,122.717 590.895,122.721C613.031,122.053 626.619,102.739 638.222,114.739C640.559,117.155 640.27,123.709 639.19,129.608C637.392,139.44 630.178,150.908 619.722,149.739C610.779,148.739 606.869,146.139 598.701,144.239C596.234,143.665 593.497,143.072 590.895,143.072C590.764,143.072 590.632,143.073 590.5,143.076L590.5,122.707Z" style="fill:rgb(255,154,116);"/>
            <g>
                <g transform="matrix(1,0,0,1,-47.105,-2)">
                    <path d="M623,131.502C623,130.121 621.88,129 620.5,129L615.5,129C614.12,129 613,130.121 613,131.502L613,143.498C613,144.879 614.12,146 615.5,146L620.5,146C621.88,146 623,144.879 623,143.498L623,131.502Z" style="fill:rgb(42,46,51);"/>
                </g>
                <g transform="matrix(0.392959,0,0,0.392959,329.128,79.6279)">
                    <path d="M623,131.502C623,130.121 621.88,129 620.5,129L615.5,129C614.12,129 613,130.121 613,131.502L613,143.498C613,144.879 614.12,146 615.5,146L620.5,146C621.88,146 623,144.879 623,143.498L623,131.502Z" style="fill:white;"/>
                </g>
            </g>
            <g transform="matrix(1,0,0,1,40,0)">
                <g transform="matrix(1,0,0,1,-47.105,-2)">
                    <path d="M623,131.502C623,130.121 621.88,129 620.5,129L615.5,129C614.12,129 613,130.121 613,131.502L613,143.498C613,144.879 614.12,146 615.5,146L620.5,146C621.88,146 623,144.879 623,143.498L623,131.502Z" style="fill:rgb(42,46,51);"/>
                </g>
                <g transform="matrix(0.392959,0,0,0.392959,329.128,79.6279)">
                    <path d="M623,131.502C623,130.121 621.88,129 620.5,129L615.5,129C614.12,129 613,130.121 613,131.502L613,143.498C613,144.879 614.12,146 615.5,146L620.5,146C621.88,146 623,144.879 623,143.498L623,131.502Z" style="fill:white;"/>
                </g>
            </g>
            <g transform="matrix(1.01697,0,0,1.00383,-10.0264,-0.467474)">
                <path d="M636.923,113.531C637.358,113.891 637.791,114.293 638.222,114.739C640.008,116.586 640.26,120.85 639.798,125.392C626.042,128.599 608.976,130.498 590.5,130.498C572.386,130.498 555.627,128.672 542.012,125.578C541.523,120.967 541.758,116.611 543.568,114.739C543.946,114.347 544.327,113.989 544.708,113.664C552.423,115.275 561.056,116.491 570.312,117.219C576.297,119.913 583.061,122.484 590.895,122.721C598.804,122.482 605.622,119.863 611.651,117.141C620.794,116.386 629.315,115.152 636.923,113.531Z" style="fill:rgb(57,64,74);"/>
            </g>
            <g transform="matrix(1.01697,0,0,1.00383,-10.0264,-0.467474)">
                <path d="M590.5,122.707C590.632,122.712 590.763,122.717 590.895,122.721C598.804,122.482 605.622,119.863 611.651,117.141C620.794,116.386 629.315,115.152 636.923,113.531C637.358,113.891 637.791,114.293 638.222,114.739C640.008,116.586 640.26,120.85 639.798,125.392C626.042,128.599 608.976,130.498 590.5,130.498L590.5,122.707Z" style="fill:rgb(42,46,51);"/>
            </g>
            <path d="M646.22,105.23C647.59,108.967 648.483,112.893 648.833,116.951C633.9,121.613 613.271,124.498 590.5,124.498C567.729,124.498 547.1,121.613 532.167,116.951C532.517,112.893 533.41,108.967 534.78,105.23C549.461,109.431 569.028,111.997 590.5,111.997C611.972,111.997 631.539,109.431 646.22,105.23Z" style="fill:rgb(255,137,0);"/>
            <path d="M590.5,111.997C611.972,111.997 631.539,109.431 646.22,105.23C647.59,108.967 648.483,112.893 648.833,116.951C633.9,121.613 613.271,124.498 590.5,124.498L590.5,111.997Z" style="fill:rgb(255,92,0);"/>
        </g>
    </g>
</svg>
